HIERARCHY
ROOT Hips
{
	OFFSET 0.00000 0.00000 0.00000
	CHANNELS 6 Xposition Yposition Zposition Zrotation Yrotation Xrotation 
	JOINT LHipJoint
	{
		OFFSET 0 0 0
		CHANNELS 3 Zrotation Yrotation Xrotation
		JOINT LeftHip
		{
			OFFSET 1.56857 -1.73443 1.15205
			CHANNELS 3 Zrotation Yrotation Xrotation
			JOINT LeftKnee
			{
				OFFSET 2.39362 -6.57643 0.00000
				CHANNELS 3 Zrotation Yrotation Xrotation
				JOINT LeftAnkle
				{
					OFFSET 2.50952 -6.89485 0.00000
					CHANNELS 3 Zrotation Yrotation Xrotation
					JOINT LeftToe
					{
						OFFSET 0.17171 -0.47178 1.88682
						CHANNELS 3 Zrotation Yrotation Xrotation
						End Site
						{
							OFFSET 0.00000 -0.00000 0.98146
						}
					}
				}
			}
		}
	}
	JOINT RHipJoint
	{
		OFFSET 0 0 0
		CHANNELS 3 Zrotation Yrotation Xrotation
		JOINT RightHip
		{
			OFFSET -1.28153 -1.73443 1.15205
			CHANNELS 3 Zrotation Yrotation Xrotation
			JOINT RightKnee
			{
				OFFSET -2.26861 -6.23296 0.00000
				CHANNELS 3 Zrotation Yrotation Xrotation
				JOINT RightAnkle
				{
					OFFSET -2.54143 -6.98254 0.00000
					CHANNELS 3 Zrotation Yrotation Xrotation
					JOINT RightToe
					{
						OFFSET -0.23309 -0.64041 1.93119
						CHANNELS 3 Zrotation Yrotation Xrotation
						End Site
						{
							OFFSET -0.00000 -0.00000 1.02013
						}
					}
				}
			}
		}
	}
	JOINT lowerback
	{
		OFFSET 0 0 0
		CHANNELS 3 Zrotation Yrotation Xrotation
		JOINT Chest
		{
			OFFSET -0.07096 2.10460 -0.27878
			CHANNELS 3 Zrotation Yrotation Xrotation
			JOINT Chest2
			{
				OFFSET -0.00826 2.13662 -0.08279
				CHANNELS 3 Zrotation Yrotation Xrotation
				JOINT lowerneck
				{
					OFFSET 0 0 0
					CHANNELS 3 Zrotation Yrotation Xrotation
					JOINT Neck
					{
						OFFSET 0.03239 1.77799 0.24435
						CHANNELS 3 Zrotation Yrotation Xrotation
						JOINT Head
						{
							OFFSET 0.01026 1.74194 -0.49664
							CHANNELS 3 Zrotation Yrotation Xrotation
							End Site
							{
								OFFSET 0.00170 1.83057 -0.19653
							}
						}
					}
				}
				JOINT LeftCollar
				{
					OFFSET 0 0 0
					CHANNELS 3 Zrotation Yrotation Xrotation
					JOINT LeftShoulder
					{
						OFFSET 3.19178 1.35907 -0.31412
CHANNELS 3 Zrotation Xrotation Yrotation
						JOINT LeftElbow
						{
OFFSET 0 -4.852470 -0.000000
CHANNELS 3 Zrotation Xrotation Yrotation
							JOINT LeftWrist
							{
OFFSET 0 -3.555840 0.000000
CHANNELS 3 Zrotation Xrotation Yrotation
								JOINT lhand
								{
									OFFSET 0 0 0
CHANNELS 3 Zrotation Xrotation Yrotation
									JOINT LFingers
									{
OFFSET 0 -0.693200 0.000000
CHANNELS 3 Zrotation Xrotation Yrotation
										End Site
										{
OFFSET 0 -0.558880 0.000000
										}
									}
								}
								JOINT LThumb
								{
OFFSET 0 0.000000 0.000000
CHANNELS 3 Zrotation Xrotation Yrotation
									End Site
									{
OFFSET 0 -0.567410 0.567410
									}
								}
							}
						}
					}
				}
				JOINT RightCollar
				{
					OFFSET 0 0 0
					CHANNELS 3 Zrotation Yrotation Xrotation
					JOINT RightShoulder
					{
						OFFSET -3.28999 1.24191 -0.26899
CHANNELS 3 Zrotation Xrotation Yrotation
						JOINT RightElbow
						{
OFFSET 0 -4.644620 0.000000
CHANNELS 3 Zrotation Xrotation Yrotation
							JOINT RightWrist
							{
OFFSET 0 -3.407030 0.000000
CHANNELS 3 Zrotation Xrotation Yrotation
								JOINT rhand
								{
									OFFSET 0 0 0
CHANNELS 3 Zrotation Xrotation Yrotation
									JOINT RFingers
									{
OFFSET 0 -0.619580 0.000000
CHANNELS 3 Zrotation Xrotation Yrotation
										End Site
										{
OFFSET 0 -0.499520 0.000000
										}
									}
								}
								JOINT RThumb
								{
OFFSET 0 0.000000 0.000000
CHANNELS 3 Zrotation Xrotation Yrotation
									End Site
									{
OFFSET 0 -0.507150 0.507150
									}
								}
							}
						}
					}
				}
			}
		}
	}
}
MOTION
Frames: 10
Frame Time: 0.008333333333333333
38.399844 16.041070 13.533214 566.772139 54.054910 562.355205 0.000000 0.000000 0.000000 -6.349295 5.442749 -35.167077 1.268591 7.138718 20.127278 -0.074344 13.634912 -18.480794 0.092959 1.960903 5.397907 0.000000 0.000000 0.000000 27.330475 -12.879615 20.334947 -0.170354 -2.658770 7.330058 -1.850698 3.755722 -24.810166 -1.565617 7.893140 -22.391558 10.166891 5.237963 8.095580 1.010448 7.964017 2.251462 -5.202149 4.069369 -0.930717 13.026252 8.743359 -19.867308 -9.561110 12.298765 27.748780 -3.635820 5.771116 14.284600 0.000000 0.000000 0.000000 14.814226 18.494941 -10.877126 14.270661 -23.120325 2.933576 23.163435 -4.531964 22.881728 0.000000 0.000000 0.000000 -7.125000 0.000000 0.000000 -3.644592 5.364900 -3.294730 0.000000 0.000000 0.000000 -31.101599 -15.714576 15.167325 -27.437134 -38.592721 -9.770692 -19.082357 3.188970 32.613788 0.000000 0.000000 0.000000 7.125000 0.000000 0.000000 16.244694 63.366579 -7.337060
38.862828 15.988684 13.147930 561.402903 54.945133 557.951720 0.000000 0.000000 0.000000 -11.167435 8.018361 -35.572090 1.592575 7.960081 22.593076 -0.340430 15.503994 -18.057683 0.149182 2.486536 6.852389 0.000000 0.000000 0.000000 23.794605 -11.628567 22.444636 -0.250089 -3.216595 8.882469 -1.767979 1.673378 -24.679446 -2.506524 9.848815 -28.489460 6.299865 5.485182 7.339697 -0.262450 7.852697 2.362426 -4.327406 4.001729 -0.757150 13.326614 8.953351 -19.844798 -9.516913 12.429356 27.433614 -3.634853 5.852956 14.182830 0.000000 0.000000 0.000000 14.138461 18.129253 -6.469781 13.161866 -21.523087 2.512946 23.574552 -2.098731 22.122763 0.000000 0.000000 0.000000 -7.125000 0.000000 0.000000 -3.307641 6.094240 -2.942786 0.000000 0.000000 0.000000 -28.262826 -14.500698 16.971414 -29.533822 -40.489787 -11.105883 -19.422911 2.925427 32.404310 0.000000 0.000000 0.000000 7.125000 0.000000 0.000000 15.682051 63.255272 -7.035666
39.294796 16.003230 12.730570 555.659471 55.128359 553.188713 0.000000 0.000000 0.000000 -15.319362 8.950912 -35.077112 1.825400 8.492014 24.219106 -0.140189 12.535097 -15.886083 0.253014 3.223793 8.903624 0.000000 0.000000 0.000000 20.640689 -9.899934 23.445462 -0.455953 -4.327821 12.001326 -1.535218 -0.086281 -23.477016 -2.717977 10.220114 -29.696023 2.872167 5.475045 6.887775 -1.598156 7.560053 2.381195 -3.768852 3.846808 -0.787407 13.390614 9.260801 -19.904949 -9.096464 12.733859 27.510376 -3.406570 6.038134 14.241420 0.000000 0.000000 0.000000 13.508081 15.835266 1.645464 10.733979 -17.866677 1.704099 22.935469 6.206293 21.662075 0.000000 0.000000 0.000000 -7.125000 0.000000 0.000000 -3.665831 6.691437 -3.221651 0.000000 0.000000 0.000000 -25.244123 -12.446547 19.613720 -31.706700 -42.311246 -12.543255 -19.944825 2.455532 31.507461 0.000000 0.000000 0.000000 7.125000 0.000000 0.000000 14.378187 62.523248 -6.190127
39.715271 16.073202 12.286793 553.702948 53.927514 551.017629 0.000000 0.000000 0.000000 -16.900425 9.275738 -33.750197 2.189565 9.249378 26.579112 -0.006398 10.990142 -15.552877 0.621650 5.044212 14.034970 0.000000 0.000000 0.000000 19.718206 -9.339399 22.603975 -0.993172 -6.334549 17.761141 -1.089420 -0.861609 -20.043313 -1.754345 8.332724 -23.730233 2.099397 5.257127 7.065398 -2.206901 7.221842 2.259064 -3.980060 3.675253 -1.056461 14.302511 8.680729 -20.148609 -10.403560 12.350235 28.954561 -4.207727 5.868048 15.070082 0.000000 0.000000 0.000000 12.727277 12.237562 15.967420 7.917976 -13.416722 0.936160 21.716078 21.410141 22.485764 0.000000 0.000000 0.000000 -7.125000 0.000000 0.000000 -4.521544 6.027346 -4.030347 0.000000 0.000000 0.000000 -21.978973 -9.245593 22.119048 -33.529148 -43.731627 -13.786881 -19.267989 1.741598 30.602734 0.000000 0.000000 0.000000 7.125000 0.000000 0.000000 14.471339 61.471277 -5.871263
40.102808 16.129212 11.832472 554.624102 52.129729 551.214032 0.000000 0.000000 0.000000 -16.317452 8.753172 -31.913838 2.458502 9.762017 28.209460 0.100926 9.590770 -15.256901 0.797849 5.701155 15.919890 0.000000 0.000000 0.000000 20.950150 -8.585357 20.072517 -2.007692 -8.870980 25.400260 -0.421660 -2.788129 -13.555353 -0.709640 5.221507 -14.575378 3.218719 4.876693 7.246185 -2.185674 6.787297 2.045738 -4.578571 3.448270 -1.284536 13.545558 9.113884 -19.536599 -9.083015 12.983114 29.084541 -3.394731 6.251698 14.903789 0.000000 0.000000 0.000000 12.144936 12.272900 8.217180 8.271814 -13.991976 1.017381 21.115105 16.070274 17.919890 0.000000 0.000000 0.000000 -7.125000 0.000000 0.000000 -4.530928 10.909970 -3.606992 0.000000 0.000000 0.000000 -18.953773 -5.422051 24.774201 -35.254045 -44.992587 -14.992741 -18.150491 1.664972 29.367319 0.000000 0.000000 0.000000 7.125000 0.000000 0.000000 14.846046 59.997474 -5.505438
40.449896 16.200741 11.363552 552.218022 49.919740 548.014528 0.000000 0.000000 0.000000 -18.318823 6.823542 -27.599863 2.436348 9.721156 28.078420 0.113675 9.943389 -15.886050 0.357051 3.835028 10.613424 0.000000 0.000000 0.000000 20.274011 -7.356824 18.014766 -3.373168 -11.266212 33.194488 0.049544 -6.326447 -7.466696 -0.167265 -2.631216 7.253858 2.434997 4.250317 7.994831 -2.304847 5.930120 2.304860 -4.270053 3.026651 -1.583764 14.212834 8.709173 -18.083355 -12.121560 13.490872 28.299456 -4.692952 6.275548 14.664111 0.000000 0.000000 0.000000 10.129466 10.463766 10.231104 8.303320 -14.043077 1.024710 19.479164 18.387594 22.767161 0.000000 0.000000 0.000000 -7.125000 0.000000 0.000000 -5.934187 6.090978 -5.300224 0.000000 0.000000 0.000000 -16.864323 -2.245864 27.502865 -35.724007 -45.322220 -15.325916 -16.312835 1.317213 28.857972 0.000000 0.000000 0.000000 7.125000 0.000000 0.000000 16.479467 59.078915 -5.767324
40.758978 16.238388 10.921410 548.551791 48.858500 544.750569 0.000000 0.000000 0.000000 -21.712403 6.262266 -24.078288 2.258279 9.383945 27.004338 0.310767 8.810364 -17.182561 0.474651 4.414499 12.246473 0.000000 0.000000 0.000000 18.040106 -5.132776 14.402121 -5.153939 -13.548209 41.469943 0.199265 -8.151438 -0.928440 -0.336283 -3.726585 10.308729 0.214174 4.103951 8.101354 -2.700523 5.570484 2.290569 -3.431877 2.851250 -1.860838 13.299737 9.392819 -18.260160 -10.131444 14.398694 29.458104 -3.520069 6.814740 15.086624 0.000000 0.000000 0.000000 8.740445 10.249849 -1.995859 9.672682 -16.225003 1.382886 19.572842 6.257101 22.311596 0.000000 0.000000 0.000000 -7.125000 0.000000 0.000000 -5.838958 6.547274 -5.162664 0.000000 0.000000 0.000000 -14.949699 0.615663 29.958517 -34.841887 -44.698136 -14.702278 -14.136550 1.220914 27.310413 0.000000 0.000000 0.000000 7.125000 0.000000 0.000000 17.759583 57.120562 -5.388104
41.074594 16.299559 10.486939 542.925139 47.231697 539.838429 0.000000 0.000000 0.000000 -26.662319 6.339377 -19.763625 1.942364 8.744033 24.998496 0.515260 7.253126 -18.115764 0.681334 5.277410 14.701654 0.000000 0.000000 0.000000 13.749866 -3.889675 10.794461 -6.988946 -15.316936 48.822521 0.071698 -5.625780 1.227053 -0.087671 -1.893674 5.212286 -3.733037 3.831107 8.130476 -3.298783 4.959070 2.614365 -1.800202 2.576464 -1.848460 13.515786 9.557682 -17.832985 -10.842384 15.110402 29.769846 -3.709887 7.107102 15.349126 0.000000 0.000000 0.000000 7.240845 8.698570 -9.974635 11.169924 -18.548027 1.829890 19.231293 -0.283022 22.463594 0.000000 0.000000 0.000000 -7.125000 0.000000 0.000000 -6.065379 6.441833 -5.377450 0.000000 0.000000 0.000000 -13.301951 3.090141 32.670088 -33.368930 -43.610601 -13.676280 -13.036955 2.023510 26.316570 0.000000 0.000000 0.000000 7.125000 0.000000 0.000000 18.275985 55.947480 -5.027492
41.363889 16.369786 10.075777 537.946129 45.052864 535.960102 0.000000 0.000000 0.000000 -31.369729 6.537821 -15.941906 1.635281 8.059761 22.896368 0.617915 5.940648 -18.193696 0.578609 4.868170 13.533493 0.000000 0.000000 0.000000 9.657737 -2.585944 6.079014 -8.866204 -16.717067 55.620591 0.004111 -2.841443 1.752546 -0.117451 -2.184685 6.017292 -7.303152 3.540403 8.190943 -3.899604 4.369658 2.781983 -0.398352 2.315706 -1.903549 12.882330 9.604776 -17.780334 -10.625082 15.580624 30.384365 -3.414522 7.297003 15.610598 0.000000 0.000000 0.000000 6.234268 5.493435 -17.052902 12.027706 -19.844350 2.113011 18.015134 -3.192631 23.765385 0.000000 0.000000 0.000000 -7.125000 0.000000 0.000000 -6.923413 5.287683 -6.304143 0.000000 0.000000 0.000000 -11.770485 5.509507 35.111012 -31.439141 -42.093867 -12.363734 -12.048079 2.441211 25.871792 0.000000 0.000000 0.000000 7.125000 0.000000 0.000000 19.007228 55.329982 -4.950672
41.629357 16.469726 9.650408 535.887730 41.994887 534.421247 0.000000 0.000000 0.000000 -34.112941 6.800153 -11.726128 1.250068 7.086690 19.973122 0.603642 4.938893 -17.305572 0.210261 2.942525 8.119455 0.000000 0.000000 0.000000 7.601552 -1.797641 1.256473 -10.396516 -17.625115 60.803269 -0.008786 -1.491351 1.838235 -0.121265 -2.243908 6.180296 -8.681736 3.021132 8.135531 -4.208410 3.655156 3.015720 0.125815 1.973734 -1.643707 12.998600 9.677623 -17.544400 -10.767373 15.880565 30.576212 -3.433197 7.452719 15.725810 0.000000 0.000000 0.000000 6.004834 2.660119 -22.949703 13.172452 -21.531409 2.521635 16.521963 -3.389899 26.540323 0.000000 0.000000 0.000000 -7.125000 0.000000 0.000000 -8.055520 2.696226 -7.744854 0.000000 0.000000 0.000000 -9.572073 8.004227 35.702494 -29.161590 -40.161619 -10.865619 -9.221933 5.081171 25.409309 0.000000 0.000000 0.000000 7.125000 0.000000 0.000000 21.523110 54.358411 -5.129640
